<?xml version="1.0" encoding="utf-8"?>
<!-- Generator: Adobe Illustrator 18.1.1, SVG Export Plug-In . SVG Version: 6.00 Build 0)  -->
<svg version="1.1" id="Layer_1" xmlns="http://www.w3.org/2000/svg" xmlns:xlink="http://www.w3.org/1999/xlink" x="0px" y="0px"
	 viewBox="0 0 200.6 88.8" enable-background="new 0 0 200.6 88.8" xml:space="preserve">
<g>
	<g>
		<g>
			<g>
				<path fill="#FEFEFE" d="M116.7,66.9h-5.4l0.5-3.4c0-0.3,0.1-0.5,0.1-0.5c0-0.5-0.2-0.8-0.8-0.8c-0.7,0-0.8,0.5-1,1.3l-2.3,15.1
					c0,0.2,0,0.4,0,0.5c0,0.5,0.2,0.8,0.7,0.8c0.7,0,0.9-0.5,1-1.3l0.8-5.6h5.4l-0.9,5.8c-0.3,1.9-0.5,3.3-1.4,4.3
					c-1,1.1-2.8,1.1-5.6,1.1c-3.7,0-5.7-0.3-5.7-2.6c0-0.7,0.1-1.6,0.3-2.8l2.3-15.4c0.3-1.9,0.5-3.2,1.4-4.2
					c1.1-1.1,2.8-1.2,5.7-1.2c3.8,0,5.7,0.2,5.7,2.8c0,0.6-0.1,1.5-0.3,2.5L116.7,66.9z"/>
			</g>
		</g>
		<g>
			<g>
				<path fill="#FEFEFE" d="M124.7,67.6L123,79.2c-0.1,0.8-0.3,1.3-1,1.3c-0.5,0-0.6-0.2-0.6-0.7c0-0.1,0-0.3,0.1-0.6l1.7-11.6
					c0.1-0.8,0.3-1.3,0.9-1.3c0.5,0,0.7,0.2,0.7,0.8C124.8,67.2,124.8,67.4,124.7,67.6z M129.3,68.1c0.2-1.2,0.3-2.1,0.3-2.7
					c0-2.5-1.6-2.7-4.9-2.7c-4.9,0-5.5,0.8-6.2,5.4l-1.6,10.5c-0.2,1.3-0.3,2.3-0.3,2.8c0,2.3,1.6,2.6,4.9,2.6
					c4.8,0,5.5-0.7,6.2-5.4L129.3,68.1z"/>
			</g>
		</g>
		<g>
			<g>
				<path fill="#FEFEFE" d="M145.7,62.7c1.9,0,2.9,1.1,2.9,3.1c0,0.6-0.1,1.5-0.3,2.7L146,83.9h-4.6l2.4-16c0-0.2,0.1-0.4,0.1-0.5
					c0-0.5-0.2-0.7-0.7-0.7c-0.6,0-0.8,0.4-1,1.2l-2.4,16h-4.6l2.4-16c0-0.3,0.1-0.4,0.1-0.5c0-0.4-0.2-0.7-0.6-0.7
					c-0.7,0-0.9,0.3-1.1,1.2l-2.4,16H129l3.1-21.1h4.6l-0.2,1.1c1-0.8,1.8-1.2,2.9-1.2c1.1,0,1.9,0.4,2.7,1.4
					C143.4,63.2,144.5,62.7,145.7,62.7z"/>
			</g>
		</g>
		<g>
			<g>
				<path fill="#FEFEFE" d="M156.8,68l-1.6,10.9c-0.1,0.8-0.4,1.2-1,1.2c-0.4,0-0.7-0.3-0.7-0.7c0,0,0-0.2,0.1-0.5l1.6-10.9
					c0.1-0.8,0.4-1.2,1-1.2c0.4,0,0.7,0.3,0.7,0.6C156.9,67.5,156.9,67.7,156.8,68z M161.4,68.6c0.2-1.3,0.3-2.2,0.3-2.7
					c0-2-1.1-3.1-3-3.1c-1,0-1.8,0.4-2.8,1.1l0.1-1h-4.6l-3.9,25.9h4.6l0.9-5.9c0.8,0.8,1.6,1.1,2.5,1.1c3.1,0,3.9-2.3,4.4-5.8
					L161.4,68.6z"/>
			</g>
		</g>
		<g>
			<g>
				<path fill="#FEFEFE" d="M168.4,74.9l-0.7,4.3c-0.1,0.9-0.3,1.3-1,1.3c-0.5,0-0.6-0.2-0.6-0.7c0-0.2,0-0.4,0.1-0.6l0.3-2.1
					c0.1-0.9,0.3-1.5,1.1-1.8L168.4,74.9z M174.1,68.1c0.2-1.2,0.3-2.1,0.3-2.7c0-2.5-1.6-2.7-4.9-2.7c-4.9,0-5.5,0.8-6.2,5.4
					L163,70h4.6l0.3-2.4c0.1-0.8,0.3-1.3,1-1.3c0.5,0,0.6,0.2,0.6,0.8c0,0,0,0.2-0.1,0.5l-0.4,2.8l-4.5,2.4c-1.8,1-2.4,1.8-2.6,3.8
					l-0.3,2.1c-0.2,1.1-0.3,2-0.3,2.7c0,1.9,0.9,2.7,2.7,2.7c1.1,0,2-0.4,3.1-1.1l-0.1,1h4.6L174.1,68.1z"/>
			</g>
		</g>
		<g>
			<g>
				<path fill="#FEFEFE" d="M184.8,83.9h-4.6l2.4-16c0-0.3,0-0.4,0-0.5c0-0.5-0.2-0.7-0.6-0.7c-0.6,0-0.8,0.3-0.9,1.2l-2.4,16H174
					l3.1-21.1h4.6l-0.1,1c1-0.7,1.9-1.1,2.8-1.1c1.9,0,3,1.1,3,3.1c0,0.5-0.1,1.4-0.3,2.7L184.8,83.9z"/>
			</g>
		</g>
		<g>
			<g>
				<path fill="#FEFEFE" d="M193.9,62.9l-1.3,14.7h0.2l3.1-14.7h4.5l-6.2,21.1c-0.9,3.1-1.6,4.9-5.1,4.9h-4.3l0.5-3.6h2.4
					c1.1,0,1.5-0.4,1.5-1.8l-0.1-20.6H193.9z"/>
			</g>
		</g>
	</g>
	<g>
		<g>
			<g>
				<path fill="#FEFEFE" d="M10.7,30.7l1.5-18.4l1.5,18.4H10.7z M0,47.9h9.4l0.8-9.4h4.1l0.8,9.4h9.5L18.3,0.2H6.1L0,47.9z"/>
			</g>
		</g>
		<g>
			<g>
				<path fill="#FEFEFE" d="M27.4,0.2h8.7v47.7h-8.7V0.2z"/>
			</g>
		</g>
		<g>
			<g>
				<path fill="#FEFEFE" d="M51.2,23h-2.7v-6c0-0.9,0.5-1.5,1.4-1.5c1.1,0,1.3,0.8,1.3,2.3V23z M51.2,33.6v6.3c0,1-0.5,1.6-1.3,1.6
					c-1.1,0-1.4-0.7-1.4-2.3v-9.5h11.4V18.7c0-8.7-1.3-10-10-10c-9.2,0-10,1.5-10,10v19.4c0,8.8,1.4,10,10.1,10c8.9,0,10-1.3,10-10
					v-4.5H51.2z"/>
			</g>
		</g>
		<g>
			<g>
				<path fill="#FEFEFE" d="M73.3,31.9l-2.2,16h-9l4.8-20.6L62.9,9h8.9l1.5,14.2L75,9H84l-4.1,18.3l4.6,20.6h-9L73.3,31.9z"/>
			</g>
		</g>
		<g>
			<g>
				<path fill="#FEFEFE" d="M98.1,31.1v8c0,1.6-0.2,2.3-1.4,2.3c-1.1,0-1.3-0.7-1.3-2.3v-3.9C95.4,33.1,95.5,32.2,98.1,31.1z
					 M86.7,22.2h8.7v-4.4c0-1.5,0.2-2.3,1.5-2.3c0.8,0,1.2,0.5,1.2,1.5v5.9l-7.5,4.5c-3.1,1.8-3.9,3.3-3.9,6.9v3.8
					c0,6.8,0.8,10,6,10c2,0,3.7-0.6,5.4-2v1.8h8.6V18.7c0-8.7-1.3-10-10-10c-9.2,0-10,1.5-10,10V22.2z"/>
			</g>
		</g>
		<g>
			<g>
				<path fill="#FEFEFE" d="M110.6,9h8.7v1.8c1.5-1.4,3.2-2.1,4.9-2.1c5,0,6.5,3.4,6.5,9.6v29.5H122V18.3c0-1.5-0.4-2.2-1.2-2.2
					c-1.2,0-1.5,0.6-1.5,2.2v29.6h-8.7V9z"/>
			</g>
		</g>
		<g>
			<g>
				<path fill="#FEFEFE" d="M142.8,18.3c0-1.6,0.4-2.2,1.5-2.2c0.6,0,1.2,0.6,1.2,1.4v20.9c0,1.5-0.4,2.2-1.4,2.2
					c-1.1,0-1.4-0.7-1.4-2.2V18.3z M154.2,0h-8.7v10.8c-1.5-1.4-3.2-2.1-4.9-2.1c-5,0-6.5,3.4-6.5,9.6v19c0,6.5,0.8,10.7,6.5,10.7
					c1.7,0,3.3-0.6,4.9-2.1v1.9h8.7V0z"/>
			</g>
		</g>
		<g>
			<g>
				<path fill="#FEFEFE" d="M169,23h-2.7v-6c0-0.9,0.5-1.5,1.3-1.5c1.1,0,1.3,0.8,1.3,2.3V23z M169,33.6v6.3c0,1-0.5,1.6-1.3,1.6
					c-1.1,0-1.3-0.7-1.3-2.3v-9.5h11.4V18.7c0-8.7-1.3-10-10-10c-9.2,0-10,1.5-10,10v19.4c0,8.8,1.3,10,10.1,10c8.9,0,10-1.3,10-10
					v-4.5H169z"/>
			</g>
		</g>
		<g>
			<g>
				<path fill="#FEFEFE" d="M181.4,9h8.7v1.8c1.6-1.4,3.2-2.1,4.6-2.1c4.5,0,5.9,3.4,5.9,9.6v6.5h-7.8v-6.6c0-1.5-0.3-2.2-1.2-2.2
					c-1.2,0-1.5,0.6-1.5,2.2v29.6h-8.7V9z"/>
			</g>
		</g>
	</g>
</g>
</svg>
